<svg xmlns="http://www.w3.org/2000/svg" width="322.477" height="76.039" viewBox="0 0 322.477 76.039">
  <g id="Symbol_4_1" data-name="Symbol 4 – 1" transform="translate(-742.523 -570.012)">
    <g id="Group_19" data-name="Group 19" transform="translate(81.037 811.319) rotate(-56)">
      <g id="Group_16" data-name="Group 16" transform="translate(12 44.313)">
        <path id="Path_38" data-name="Path 38" d="M-4426.817-1804l-20.183,5.046v40.366Z" transform="translate(4997.183 2222.275)" fill="#3f3f3f"/>
        <g id="Path_37" data-name="Path 37" transform="translate(4997.183 2228.183)" fill="#3f3f3f">
          <path d="M -4447.10009765625 -1804.734497070313 L -4447.10009765625 -1804.862548828125 L -4447.10009765625 -1820 L -4447.10009765625 -1820.162353515625 L -4446.955078125 -1820.08935546875 C -4440.134765625 -1816.651123046875 -4427.14306640625 -1810.11865234375 -4426.791015625 -1810.0048828125 C -4426.79296875 -1810.005493164063 -4426.794921875 -1810.005859375 -4426.7958984375 -1810.006103515625 L -4426.79248046875 -1809.811279296875 L -4446.9755859375 -1804.765502929688 L -4447.10009765625 -1804.734497070313 Z" stroke="none"/>
          <path d="M -4447 -1804.862548828125 L -4426.81689453125 -1809.908325195313 C -4427.1015625 -1809.968994140625 -4447 -1820 -4447 -1820 L -4447 -1804.862548828125 M -4447.2001953125 -1804.6064453125 L -4447.2001953125 -1804.862548828125 L -4447.2001953125 -1820 L -4447.2001953125 -1820.324829101563 L -4446.91015625 -1820.178588867188 C -4440.1298828125 -1816.7607421875 -4427.193359375 -1810.255737304688 -4426.75830078125 -1810.099365234375 C -4426.765625 -1810.10205078125 -4426.771484375 -1810.103149414063 -4426.775390625 -1810.103881835938 L -4426.7685546875 -1809.714233398438 L -4446.95166015625 -1804.66845703125 L -4447.2001953125 -1804.6064453125 Z" stroke="none" fill="#fff"/>
        </g>
        <path id="Path_33" data-name="Path 33" d="M752,112l20.183,30.275-8.124-4.062L752,132.183V112h0" transform="translate(-201.817 276)" fill="#fff" stroke="#3f3f3f" stroke-linejoin="bevel" stroke-width="0.5"/>
        <ellipse id="Ellipse_4" data-name="Ellipse 4" cx="11.038" cy="10.722" rx="11.038" ry="10.722" transform="translate(539.461 405.66)" fill="#b7494e"/>
        <path id="Path_36" data-name="Path 36" d="M-4447-1804l20.183,5.046v40.366Z" transform="translate(4977 2222.275)" fill="#3f3f3f"/>
        <path id="Path_34" data-name="Path 34" d="M-4447-1821.725l20.183-30.275v20.183Z" transform="translate(4977 2240)" fill="#3f3f3f"/>
        <g id="Path_35" data-name="Path 35" transform="translate(4977 2228.183)" fill="#3f3f3f">
          <path d="M -4426.9169921875 -1804.990600585938 L -4446.69873046875 -1809.936157226563 C -4444.43798828125 -1811.008666992188 -4429.3583984375 -1818.607055664063 -4426.9169921875 -1819.837646484375 L -4426.9169921875 -1804.990600585938 Z" stroke="none"/>
          <path d="M -4427.01708984375 -1805.11865234375 L -4427.01708984375 -1819.675170898438 C -4431.46923828125 -1817.431030273438 -4443.6611328125 -1811.291381835938 -4446.40771484375 -1809.966430664063 L -4427.01708984375 -1805.11865234375 M -4426.81689453125 -1804.862548828125 L -4447 -1809.908325195313 C -4446.71533203125 -1809.968994140625 -4426.81689453125 -1820 -4426.81689453125 -1820 L -4426.81689453125 -1804.862548828125 Z" stroke="none" fill="#fff"/>
        </g>
        <path id="Path_39" data-name="Path 39" d="M752,112l20.183,30.275-8.124-4.062L752,132.183V112h0" transform="translate(-201.817 276)" fill="#fff"/>
        <path id="Path_40" data-name="Path 40" d="M0,0V75.687" transform="translate(550.183 388)" fill="none" stroke="#b7494e" stroke-linecap="square" stroke-width="0.2"/>
      </g>
    </g>
    <text id="Ender_X-3000" data-name="Ender X-3000" transform="translate(820 624)" fill="#2f4455" font-size="42" font-family="Roboto-Thin, Roboto" font-weight="200"><tspan x="0" y="0">Ender </tspan><tspan y="0" fill="#b7494e">X</tspan><tspan y="0">-3000</tspan></text>
    <line id="Line_10" data-name="Line 10" x2="248" transform="translate(816.5 629.5)" fill="none" stroke="#b7494e" stroke-width="1"/>
  </g>
</svg>
