<svg xmlns="http://www.w3.org/2000/svg" xmlns:xlink="http://www.w3.org/1999/xlink" width="64.208" height="120.239" viewBox="0 0 64.208 120.239">
  <defs>
    <clipPath id="clip-path">
      <rect width="64.208" height="120.239" fill="none"/>
    </clipPath>
  </defs>
  <g id="Symbol" clip-path="url(#clip-path)">
    <path id="Path_38" data-name="Path 38" d="M-4415-1804l-32,8v64Z" transform="translate(4479 1852.139)" fill="#3f3f3f"/>
    <g id="Path_37" data-name="Path 37" transform="translate(4479 1852.139)" fill="#3f3f3f">
      <path d="M -4447.10009765625 -1795.871948242188 L -4447.10009765625 -1796 L -4447.10009765625 -1820 L -4447.10009765625 -1820.162353515625 L -4446.955078125 -1820.08935546875 C -4436.1064453125 -1814.620361328125 -4415.46142578125 -1804.239990234375 -4414.97607421875 -1804.097045898438 L -4414.9755859375 -1803.902954101563 L -4446.9755859375 -1795.902954101563 L -4447.10009765625 -1795.871948242188 Z" stroke="none"/>
      <path d="M -4447 -1796 L -4415 -1804 C -4415.451171875 -1804.096069335938 -4447 -1820 -4447 -1820 L -4447 -1796 M -4447.2001953125 -1795.743896484375 L -4447.2001953125 -1796 L -4447.2001953125 -1820 L -4447.2001953125 -1820.324829101563 L -4446.91015625 -1820.178588867188 C -4436.1162109375 -1814.737426757813 -4415.544921875 -1804.393920898438 -4414.94580078125 -1804.1923828125 C -4414.951171875 -1804.194091796875 -4414.955078125 -1804.194946289063 -4414.95849609375 -1804.195556640625 L -4414.95166015625 -1803.806030273438 L -4446.95166015625 -1795.806030273438 L -4447.2001953125 -1795.743896484375 Z" stroke="none" fill="#fff"/>
    </g>
    <path id="Path_33" data-name="Path 33" d="M752,112l32,48-12.881-6.44L752,144V112h0" transform="translate(-720 -111.861)" fill="#fff" stroke="#3f3f3f" stroke-linejoin="bevel" stroke-width="0.5"/>
    <ellipse id="Ellipse_4" data-name="Ellipse 4" cx="17.5" cy="17" rx="17.5" ry="17" transform="translate(15 28.139)" fill="#b7494e"/>
    <path id="Path_36" data-name="Path 36" d="M-4447-1804l32,8v64Z" transform="translate(4447 1852.139)" fill="#3f3f3f"/>
    <path id="Path_34" data-name="Path 34" d="M-4447-1804l32-48v32Z" transform="translate(4447 1852.139)" fill="#3f3f3f"/>
    <g id="Path_35" data-name="Path 35" transform="translate(4447 1852.139)" fill="#3f3f3f">
      <path d="M -4415.10009765625 -1796.128051757813 L -4446.69384765625 -1804.026611328125 C -4443.71484375 -1805.417724609375 -4418.7470703125 -1817.999145507813 -4415.10009765625 -1819.837646484375 L -4415.10009765625 -1796.128051757813 Z" stroke="none"/>
      <path d="M -4415.2001953125 -1796.256103515625 L -4415.2001953125 -1819.675170898438 C -4420.61083984375 -1816.94775390625 -4442.59521484375 -1805.872680664063 -4446.4013671875 -1804.056518554688 L -4415.2001953125 -1796.256103515625 M -4415 -1796 L -4447 -1804 C -4446.548828125 -1804.096069335938 -4415 -1820 -4415 -1820 L -4415 -1796 Z" stroke="none" fill="#fff"/>
    </g>
    <path id="Path_39" data-name="Path 39" d="M752,112l32,48-12.881-6.44L752,144V112h0" transform="translate(-720 -111.861)" fill="#fff"/>
    <path id="Path_40" data-name="Path 40" d="M0,0V120" transform="translate(32 0.139)" fill="none" stroke="#fff" stroke-linecap="round" stroke-width="0.2"/>
  </g>
</svg>
